<svg width="706" height="334" viewBox="0 0 706 334" fill="none" xmlns="http://www.w3.org/2000/svg">
<path fill-rule="evenodd" clip-rule="evenodd" d="M553.117 35.5988C577.509 33.2769 598.2 50.1794 620.16 61.0516C643.662 72.6868 676.664 76.5153 685.582 101.18C694.561 126.013 673.119 150.952 661.181 174.505C652.338 191.953 637.491 203.819 625.664 219.399C610.175 239.8 606.154 273.805 581.251 279.789C556.8 285.665 535.413 261.734 515.995 245.751C499.568 232.23 487.21 215.286 479.023 195.646C471.081 176.594 468.108 156.421 470.198 135.887C472.486 113.415 477.085 90.7079 491.477 73.301C507.211 54.2719 528.539 37.9383 553.117 35.5988Z" fill="#57BAFF" fill-opacity="0.15"/>
<path fill-rule="evenodd" clip-rule="evenodd" d="M342.116 157.594C366.486 155.077 386.291 164.292 407.636 169.822C430.479 175.74 463.131 176.527 470.869 190.951C478.66 205.473 456.186 221.456 443.23 236.169C433.632 247.068 418.319 254.887 405.838 264.799C389.495 277.78 383.933 298.416 358.887 303.158C334.296 307.815 314.121 294.405 295.539 285.685C279.82 278.307 268.306 268.684 261.064 257.249C254.04 246.156 252.008 234.161 255.03 221.715C258.338 208.095 263.956 194.228 279.072 183.099C295.595 170.932 317.561 160.129 342.116 157.594Z" fill="#57BAFF" fill-opacity="0.15"/>
<path fill-rule="evenodd" clip-rule="evenodd" d="M188.565 31.5719C217.901 32.4007 248.265 46.493 264.305 72.4827C279.88 97.7184 269.248 131.679 269.43 162.598C269.599 191.333 282.887 224.457 265.332 246.78C247.575 269.36 214.131 257.515 188.152 265.951C166.781 272.892 149.213 290.452 127.136 291.659C99.8401 293.151 69.7454 292.784 49.7611 273.517C28.9429 253.446 21.085 220.738 21.6053 189.915C22.1019 160.491 34.8147 132.341 52.5332 109.284C68.5558 88.434 93.0167 80.8762 115.088 68.2672C139.576 54.2776 161.389 30.8041 188.565 31.5719Z" fill="#9673FF" fill-opacity="0.15"/>
<path fill-rule="evenodd" clip-rule="evenodd" d="M385.374 39.7147C403.465 40.5358 422.348 48.9118 432.544 63.8827C442.445 78.4193 436.296 97.6052 436.777 115.19C437.224 131.533 445.809 150.528 435.255 163.013C424.58 175.642 403.826 168.507 387.915 172.995C374.825 176.687 364.207 186.463 350.614 186.886C333.808 187.409 315.255 186.842 302.708 175.647C289.638 163.985 284.404 145.291 284.357 127.769C284.313 111.042 291.812 95.1857 302.458 82.2852C312.085 70.6194 327.071 66.6132 340.524 59.7061C355.451 52.0426 368.615 38.954 385.374 39.7147Z" fill="#9673FF" fill-opacity="0.15"/>
<rect x="56" y="265.525" width="126.359" height="167.913" rx="63.1795" transform="rotate(-90 56 265.525)" fill="#D2C2FF"/>
<circle cx="572.46" cy="195.985" r="69.5398" fill="#9673FF"/>
<circle cx="466.454" cy="140.862" r="69.5398" fill="#B1DEFD"/>
<rect x="396.915" y="117.117" width="139.08" height="148.408" rx="25" fill="#B1DEFD"/>
<rect x="165.398" y="57.7538" width="110.246" height="207.771" rx="55.123" fill="#C4C4C4"/>
<rect x="165.398" y="57.7538" width="110.246" height="207.771" rx="55.123" fill="#B69DFF"/>
<path d="M283.703 119.773C301.794 88.4399 347.02 88.44 365.11 119.773L406.72 191.845C424.811 223.178 402.198 262.345 366.017 262.345H282.796C246.615 262.345 224.003 223.178 242.093 191.845L283.703 119.773Z" fill="#57BAFF"/>
<circle cx="297.693" cy="147.647" r="6.78437" fill="#1B1E27"/>
<circle cx="336.138" cy="147.647" r="6.78437" fill="#1B1E27"/>
<path d="M339.16 174.316H294.126C294.126 187.264 306.097 196.833 317.498 196.833C328.899 196.833 339.16 187.827 339.16 174.316Z" fill="#1B1E27"/>
<circle cx="444.516" cy="102.811" r="7.74303" fill="#1B1E27"/>
<circle cx="488.393" cy="102.811" r="7.74303" fill="#1B1E27"/>
<ellipse cx="466.454" cy="139.59" rx="10.324" ry="14.8408" fill="#1B1E27"/>
<path d="M121.524 232.451C121.524 230.204 111.971 218.402 99.0461 218.402C86.121 218.402 77.1297 230.204 77.1297 232.451" stroke="#1B1E27" stroke-width="3"/>
<path d="M106.913 197.048L126.38 185.809C129.611 191.406 126.825 198.53 121.897 201.375C116.968 204.221 110.285 202.888 106.913 197.048Z" fill="#1B1E27"/>
<path d="M90.4151 197.048L70.9482 185.809C67.717 191.406 70.5034 198.53 75.4317 201.375C80.36 204.221 87.0433 202.888 90.4151 197.048Z" fill="#1B1E27"/>
<circle cx="211.297" cy="114.677" r="6.88874" fill="#1B1E27"/>
<circle cx="250.333" cy="114.677" r="6.88874" fill="#1B1E27"/>
<path d="M212.445 145.103H249.185" stroke="#1B1E27" stroke-width="3"/>
<path d="M577.548 214.642H615.71C615.71 203.427 605.566 195.137 595.905 195.137C586.244 195.137 577.548 202.939 577.548 214.642Z" fill="#1B1E27"/>
<mask id="path-25-inside-1" fill="white">
<path d="M591.792 179.297L572.46 168L582.792 179.297L572.46 189.264L591.792 179.297Z"/>
</mask>
<path d="M591.792 179.297L572.46 168L582.792 179.297L572.46 189.264L591.792 179.297Z" fill="#1B1E27"/>
<path d="M572.46 168L572.965 167.136L571.722 168.675L572.46 168ZM591.792 179.297L592.25 180.185L593.867 179.351L592.296 178.433L591.792 179.297ZM572.46 189.264L571.766 188.545L572.918 190.153L572.46 189.264ZM582.792 179.297L583.487 180.016L584.187 179.34L583.53 178.622L582.792 179.297ZM571.956 168.863L591.287 180.16L592.296 178.433L572.965 167.136L571.956 168.863ZM591.333 178.408L572.002 188.376L572.918 190.153L592.25 180.185L591.333 178.408ZM573.155 189.984L583.487 180.016L582.098 178.577L571.766 188.545L573.155 189.984ZM583.53 178.622L573.198 167.325L571.722 168.675L582.054 179.972L583.53 178.622Z" fill="#1B1E27" mask="url(#path-25-inside-1)"/>
<mask id="path-27-inside-2" fill="white">
<path d="M601.457 179.297L620.789 168L610.456 179.297L620.789 189.264L601.457 179.297Z"/>
</mask>
<path d="M601.457 179.297L620.789 168L610.456 179.297L620.789 189.264L601.457 179.297Z" fill="#1B1E27"/>
<path d="M620.789 168L620.284 167.136L621.526 168.675L620.789 168ZM601.457 179.297L600.999 180.185L599.381 179.351L600.953 178.433L601.457 179.297ZM620.789 189.264L621.483 188.545L620.33 190.153L620.789 189.264ZM610.456 179.297L609.762 180.016L609.061 179.34L609.718 178.622L610.456 179.297ZM621.293 168.863L601.962 180.16L600.953 178.433L620.284 167.136L621.293 168.863ZM601.915 178.408L621.247 188.376L620.33 190.153L600.999 180.185L601.915 178.408ZM620.094 189.984L609.762 180.016L611.151 178.577L621.483 188.545L620.094 189.984ZM609.718 178.622L620.051 167.325L621.526 168.675L611.194 179.972L609.718 178.622Z" fill="#1B1E27" mask="url(#path-27-inside-2)"/>
</svg>
